<svg xmlns="http://www.w3.org/2000/svg" width="20" height="20" viewBox="0 0 20 20">
    <g fill="none" fill-rule="evenodd">
        <g fill="#686868" fill-rule="nonzero">
            <g>
                <path d="M16.424 9.997c-.394 0-.714.32-.714.714v7.141c0 .395-.32.714-.714.714H2.142c-.394 0-.714-.32-.714-.714V3.571c0-.395.32-.715.714-.715h8.57c.394 0 .713-.32.713-.714 0-.394-.32-.714-.714-.714H2.142C.96 1.428 0 2.388 0 3.571v14.281c0 1.183.96 2.143 2.142 2.143h12.854c1.183 0 2.142-.96 2.142-2.143v-7.14c0-.395-.32-.715-.714-.715z" transform="translate(-388 -146) translate(388 146)"/>
                <path d="M19.194.8c-.512-.512-1.208-.8-1.933-.8-.726-.002-1.422.287-1.933.801l-9.406 9.406c-.078.078-.137.174-.172.279L4.322 14.77c-.125.374.077.779.452.903.072.025.148.037.225.037.076 0 .152-.012.225-.036l4.285-1.429c.105-.035.2-.094.279-.172l9.406-9.406c1.068-1.068 1.068-2.799 0-3.866zm-1.01 2.858L8.901 12.94l-2.773.926.923-2.77 9.287-9.283c.51-.51 1.337-.509 1.847.002.243.244.38.574.381.918.001.347-.136.68-.382.924z" transform="translate(-388 -146) translate(388 146)"/>
            </g>
        </g>
    </g>
</svg>
