<svg xmlns="http://www.w3.org/2000/svg" width="15" height="13" viewBox="0 0 15 13">
    <g fill="none" fill-rule="evenodd">
        <g fill="#0074FF" fill-rule="nonzero">
            <g>
                <g>
                    <g>
                        <g>
                            <path d="M10.882 7.1h-.506c-.074 0-.135.024-.182.072-.048.047-.072.108-.072.182v2.53c0 .348-.123.646-.371.894s-.546.372-.894.372h-6.58c-.347 0-.645-.124-.893-.372s-.372-.546-.372-.894v-6.58c0-.347.124-.645.372-.893s.546-.371.894-.371h5.567c.074 0 .134-.024.182-.072.047-.047.07-.108.07-.182V1.28c0-.073-.023-.134-.07-.182-.048-.047-.108-.07-.182-.07H2.278c-.628 0-1.164.222-1.61.668C.223 2.14 0 2.678 0 3.305v6.58c0 .627.223 1.163.668 1.609.446.445.982.668 1.61.668h6.58c.627 0 1.163-.223 1.609-.668.445-.446.668-.982.668-1.61v-2.53c0-.074-.024-.135-.071-.182-.048-.048-.109-.071-.182-.071z" transform="translate(-584 -499) translate(453 245) translate(20 83) translate(15 169) translate(96 2)"/>
                            <path d="M14.021.165c-.1-.1-.219-.15-.356-.15H9.616c-.137 0-.256.05-.356.15-.1.1-.15.22-.15.356 0 .137.05.256.15.356l1.392 1.392-5.156 5.156c-.053.053-.079.114-.079.182 0 .069.026.13.08.182l.9.901c.053.053.114.08.183.08.068 0 .129-.027.181-.08l5.157-5.156 1.391 1.392c.1.1.22.15.356.15.137 0 .256-.05.356-.15.1-.1.15-.219.15-.356V.521c0-.137-.05-.255-.15-.356z" transform="translate(-584 -499) translate(453 245) translate(20 83) translate(15 169) translate(96 2)"/>
                        </g>
                    </g>
                </g>
            </g>
        </g>
    </g>
</svg>
