<svg xmlns="http://www.w3.org/2000/svg" width="15" height="16" viewBox="0 0 15 16">
    <g fill="none" fill-rule="evenodd">
        <g fill="#62646A" fill-rule="nonzero">
            <g>
                <g>
                    <g>
                        <g>
                            <path d="M15 7.5c0-.471-.044-.943-.132-1.4-.04-.208-.22-.358-.431-.358H7.529c-.243 0-.44.197-.44.44v2.636c0 .243.197.44.44.44h3.544c-.22.447-.525.835-.882 1.161l2.484 2.484C14.104 11.54 15 9.625 15 7.5zM7.5 3.516c.862 0 1.682.273 2.371.792.175.13.42.115.575-.04l1.876-1.876c.087-.087.133-.207.128-.33-.006-.124-.062-.239-.157-.318C10.951.619 9.25 0 7.5 0 4.926 0 2.653 1.308 1.308 3.294l2.58 2.58c.615-1.386 2-2.358 3.612-2.358zM7.5 15c1.678 0 3.222-.563 4.47-1.5l-2.53-2.53c-.578.326-1.24.514-1.94.514-1.612 0-2.997-.972-3.612-2.358l-2.58 2.58C2.653 13.692 4.926 15 7.5 15zM3.58 8.133c-.034-.207-.064-.416-.064-.633 0-.217.03-.426.064-.633L.822 4.11C.3 5.128 0 6.279 0 7.5s.3 2.372.822 3.39L3.58 8.133z" transform="translate(-65 -925) translate(45 538) translate(20 321) translate(0 25.5) translate(0 41)"/>
                        </g>
                    </g>
                </g>
            </g>
        </g>
    </g>
</svg>
