<svg xmlns="http://www.w3.org/2000/svg" width="10" height="15" viewBox="0 0 10 15">
    <g fill="none" fill-rule="evenodd">
        <g fill="#62646A" fill-rule="nonzero">
            <g>
                <g>
                    <g>
                        <g>
                            <g>
                                <path d="M5 0C2.248 0 .01 2.239.01 4.99c0 .826.206 1.645.599 2.372l4.118 7.448c.055.1.16.16.273.16.114 0 .218-.06.273-.16l4.12-7.45c.39-.725.597-1.544.597-2.37C9.99 2.24 7.752 0 5 0zm0 7.485c-1.376 0-2.495-1.119-2.495-2.495 0-1.376 1.12-2.495 2.495-2.495 1.376 0 2.495 1.12 2.495 2.495 0 1.376-1.12 2.495-2.495 2.495z" transform="translate(-69 -418) translate(46 131) translate(20 26) translate(1 259) translate(2) translate(0 2)"/>
                            </g>
                        </g>
                    </g>
                </g>
            </g>
        </g>
    </g>
</svg>
