<svg xmlns="http://www.w3.org/2000/svg" width="14" height="15" viewBox="0 0 14 15">
    <g fill="none" fill-rule="evenodd">
        <g fill="#62646A" fill-rule="nonzero">
            <g>
                <g>
                    <g>
                        <g>
                            <g>
                                <path d="M11.746 1.467h-3.07C8.376.616 7.57 0 6.612 0c-.957 0-1.764.616-2.065 1.467H1.478c-.81 0-1.467.656-1.467 1.467V13.2c0 .81.657 1.467 1.467 1.467h10.268c.81 0 1.466-.657 1.466-1.467V2.934c0-.81-.656-1.467-1.466-1.467zm-5.134 0c.403 0 .733.326.733.733s-.33.734-.733.734c-.403 0-.733-.327-.733-.734s.33-.733.733-.733zM5.145 11.734L2.212 8.801l1.037-1.038 1.896 1.896 4.83-4.83 1.037 1.038-5.867 5.867z" transform="translate(-67 -478) translate(46 131) translate(20 26) translate(1 259) translate(0 60) translate(0 2)"/>
                            </g>
                        </g>
                    </g>
                </g>
            </g>
        </g>
    </g>
</svg>
