<svg xmlns="http://www.w3.org/2000/svg" width="31" height="29" viewBox="0 0 31 29">
    <g fill="none" fill-rule="evenodd">
        <g fill="#3D97F7" fill-rule="nonzero">
            <g>
                <g>
                    <g>
                        <path d="M7.984 22.386c-2.045 0-3.865-1.31-4.525-3.259l-.045-.146c-.156-.517-.221-.95-.221-1.385v-8.71L.093 19.23c-.398 1.521.51 3.1 2.035 3.52l19.754 5.29c.247.064.493.094.736.094 1.272 0 2.435-.844 2.76-2.089l1.152-3.66H7.984zM11.497 8.972c1.41 0 2.555-1.146 2.555-2.555 0-1.409-1.146-2.555-2.555-2.555-1.41 0-2.555 1.146-2.555 2.555 0 1.41 1.146 2.555 2.555 2.555z" transform="translate(-365 -449) translate(323 164) translate(30 274) translate(12 11)"/>
                        <path d="M27.466.03H8.303C6.543.03 5.11 1.462 5.11 3.222v14.053c0 1.76 1.434 3.194 3.194 3.194h19.163c1.76 0 3.194-1.433 3.194-3.194V3.223c0-1.76-1.433-3.194-3.194-3.194zM8.303 2.584h19.163c.353 0 .639.286.639.638v9.07l-4.036-4.71c-.428-.501-1.047-.77-1.713-.785-.662.004-1.283.298-1.707.806L15.904 13.3l-1.545-1.542c-.874-.873-2.296-.873-3.169 0l-3.526 3.525V3.223c0-.352.287-.638.64-.638z" transform="translate(-365 -449) translate(323 164) translate(30 274) translate(12 11)"/>
                    </g>
                </g>
            </g>
        </g>
    </g>
</svg>
