<svg xmlns="http://www.w3.org/2000/svg" width="12" height="15" viewBox="0 0 12 15">
    <g fill="none" fill-rule="evenodd">
        <g fill="#62646A" fill-rule="nonzero">
            <g>
                <g>
                    <g>
                        <g>
                            <g>
                                <path d="M5.898 6.915c.95 0 1.772-.34 2.444-1.013.673-.672 1.013-1.495 1.013-2.445 0-.95-.34-1.772-1.013-2.444C7.67.34 6.848 0 5.898 0S4.125.34 3.453 1.013c-.672.672-1.013 1.494-1.013 2.444s.341 1.773 1.013 2.445c.672.672 1.495 1.013 2.445 1.013zM11.948 11.038c-.02-.28-.06-.584-.117-.907-.058-.324-.133-.631-.223-.912-.093-.29-.219-.576-.375-.85-.162-.285-.352-.533-.565-.737-.223-.213-.496-.385-.812-.51-.315-.125-.664-.188-1.037-.188-.146 0-.288.06-.562.239-.168.11-.365.236-.585.377-.188.12-.443.232-.758.334-.307.099-.618.15-.926.15-.308 0-.62-.051-.927-.15-.314-.102-.569-.214-.756-.334-.218-.14-.415-.266-.586-.378-.274-.178-.416-.238-.562-.238-.373 0-.722.063-1.037.188-.315.125-.589.297-.812.51-.213.204-.403.452-.565.737-.156.274-.282.56-.375.85-.09.281-.165.588-.223.912-.058.322-.097.627-.116.908-.02.274-.029.56-.029.847 0 .75.238 1.356.708 1.804.464.441 1.078.665 1.824.665h6.912c.747 0 1.36-.224 1.825-.665.47-.447.708-1.054.708-1.804 0-.289-.01-.574-.03-.848z" transform="translate(-68 -448) translate(46 131) translate(20 26) translate(1 259) translate(1 30) translate(0 2)"/>
                            </g>
                        </g>
                    </g>
                </g>
            </g>
        </g>
    </g>
</svg>
