<?xml version="1.0" encoding="UTF-8"?>
<svg width="22px" height="24px" viewBox="0 0 22 24" version="1.1" xmlns="http://www.w3.org/2000/svg" xmlns:xlink="http://www.w3.org/1999/xlink">
    <title>0479CD44-6905-4829-8159-F953467DA3B4</title>
    <g id="Page-1" stroke="none" stroke-width="1" fill="none" fill-rule="evenodd">
        <g id="Mentor-Profile" transform="translate(-572.000000, -200.000000)" fill="#3F88F2" fill-rule="nonzero">
            <g id="Group-47" transform="translate(439.000000, 196.000000)">
                <g id="Group" transform="translate(133.000000, 4.000000)">
                    <path d="M1.63139224,11.230505 C1.63139224,7.1180308 4.26867762,3.63441746 7.919781,2.41267447 L8.50131592,0.537383193 C3.64204639,1.60200666 0,5.98355517 0,11.230505 C0,14.8446366 1.73158531,18.0434828 4.39472088,20.0357046 L4.39094713,20.0383839 L4.46755426,21.7655503 L5.40589726,18.7389423 C3.11957066,17.0506252 1.63139224,14.3183532 1.63139224,11.230505 Z" id="PATH_21_0"></path>
                    <path d="M18.4691112,3.55212587 L18.8896957,1.65042473 L13.923629,8.39948302 L18.3883529,8.39948302 L8.44829473,21.908508 C9.20266741,22.0788325 9.98477715,22.1737549 10.7895294,22.1737549 C16.7484698,22.1737549 21.5788701,17.2743435 21.5788701,11.230505 C21.5788701,8.23662223 20.3901388,5.52750668 18.4691112,3.55212587 Z" id="PATH_21_1"></path>
                    <polygon id="PATH_21_2" points="15.6137031 9.81068803 12.6231947 9.81068803 11.1489791 9.81068803 16.7943208 2.13843298 18.367786 0 10.1262928 0 10.0279866 0.317492421 9.49494437 2.03623831 6.85426261 10.5530347 5.93761867 13.5095991 8.42716173 13.5095991 8.52848692 13.3718086 7.45485497 16.8343706 6.62878104 19.4987042 6.28404895 20.6104061 6.13121206 21.1033901 5.27721238 23.8580531 7.0221945 21.4865244 7.66693974 20.6104061 10.4453634 16.8343706"></polygon>
                </g>
            </g>
        </g>
    </g>
</svg>