<?xml version="1.0" encoding="UTF-8"?>
<svg width="15px" height="15px" viewBox="0 0 15 15" version="1.1" xmlns="http://www.w3.org/2000/svg" xmlns:xlink="http://www.w3.org/1999/xlink">
    <title>34FCB8C3-4AB2-44C5-9BD5-D6D27E8A51A5</title>
    <g id="Page-1" stroke="none" stroke-width="1" fill="none" fill-rule="evenodd">
        <g id="Mentor-Profile" transform="translate(-514.000000, -893.000000)" fill="#FFC107" fill-rule="nonzero">
            <g id="Group-30" transform="translate(418.000000, 323.000000)">
                <g id="Group-22-Copy" transform="translate(0.000000, 546.000000)">
                    <g id="Group-23" transform="translate(20.000000, 20.000000)">
                        <g id="star" transform="translate(76.000000, 4.000000)">
                            <path d="M14.9609002,5.43207768 C14.8627074,5.12834367 14.5933066,4.912617 14.2745804,4.88389159 L9.9451693,4.49077696 L8.23320363,0.483754163 C8.10697208,0.19009124 7.81948911,0 7.5000763,0 C7.18066348,0 6.89318051,0.19009124 6.76694893,0.484440841 L5.05498326,4.49077696 L0.724885508,4.88389159 C0.406731555,4.91330365 0.138017407,5.12834367 0.0392523511,5.43207768 C-0.059512705,5.73581166 0.0316990419,6.06895774 0.272374481,6.27896222 L3.54489659,9.14898526 L2.57990598,13.3997735 C2.50929413,13.7123196 2.63060459,14.0353947 2.88993439,14.2228537 C3.02932702,14.3235643 3.19240951,14.3748351 3.35686532,14.3748351 C3.49866127,14.3748351 3.63931276,14.3366109 3.76554434,14.2610779 L7.5000763,12.0290794 L11.2332349,14.2610779 C11.5064124,14.4254193 11.850774,14.4104272 12.1095315,14.2228537 C12.3689758,14.0348224 12.4901718,13.711633 12.4195599,13.3997735 L11.4545693,9.14898526 L14.7270914,6.27953444 C14.9677669,6.06895774 15.0596653,5.73638387 14.9609002,5.43207768 Z" id="Path"></path>
                        </g>
                    </g>
                </g>
            </g>
        </g>
    </g>
</svg>