<?xml version="1.0" encoding="UTF-8"?>
<svg width="35px" height="35px" viewBox="0 0 35 35" version="1.1" xmlns="http://www.w3.org/2000/svg" xmlns:xlink="http://www.w3.org/1999/xlink">
    <title>DE357454-9AD9-4641-8257-F0004B10C748</title>
    <g id="Page-1" stroke="none" stroke-width="1" fill="none" fill-rule="evenodd" opacity="0.100000001">
        <g id="Mentor-Profile" transform="translate(-1083.000000, -210.000000)" fill-rule="nonzero">
            <g id="Group-6" transform="translate(946.000000, 210.000000)">
                <g id="clock-copy" transform="translate(137.000000, 0.000000)">
                    <path d="M17.5,0 C7.84991211,0 0,7.84991211 0,17.5 C0,27.1500879 7.84991211,35 17.5,35 C27.1500879,35 35,27.1500879 35,17.5 C35,7.84991211 27.1500879,0 17.5,0 Z" id="Shape" fill="#62646A"></path>
                    <path d="M23.7354687,20.5905957 L18.855498,16.9306348 L18.855498,9.47522461 C18.855498,8.7255957 18.2495605,8.1196582 17.4999316,8.1196582 C16.7503027,8.1196582 16.1443652,8.7255957 16.1443652,9.47522461 L16.1443652,17.6084863 C16.1443652,18.035459 16.345,18.4380957 16.6865918,18.6929395 L22.1087207,22.7595703 C22.3526953,22.9425684 22.6374121,23.0306836 22.9206934,23.0306836 C23.3341309,23.0306836 23.7408008,22.8449512 24.0065137,22.4870898 C24.4566602,21.8892188 24.3346387,21.0393066 23.7354687,20.5905957 Z" id="Path" stroke="#FFFFFF" stroke-width="1.5" fill="#FFFFFF"></path>
                </g>
            </g>
        </g>
    </g>
</svg>