<?xml version="1.0" encoding="UTF-8"?>
<svg width="33px" height="35px" viewBox="0 0 33 35" version="1.1" xmlns="http://www.w3.org/2000/svg" xmlns:xlink="http://www.w3.org/1999/xlink">
    <title>D98D090D-82CC-4A17-8F03-3C59C0E26C72</title>
    <g id="Page-1" stroke="none" stroke-width="1" fill="none" fill-rule="evenodd" opacity="0.100000001">
        <g id="Mentor-Profile" transform="translate(-946.000000, -211.000000)" fill="#62646A" fill-rule="nonzero">
            <g id="Group-6" transform="translate(946.000000, 210.000000)">
                <g id="Group-2" transform="translate(0.000000, 1.000000)">
                    <g id="clipboard" transform="translate(-0.000000, 0.000000)">
                        <path d="M27.4064439,3.42248663 L20.2449465,3.42248663 C19.5433155,1.43743316 17.6609358,0 15.4277807,0 C13.1946257,0 11.312246,1.43743316 10.6106952,3.42248663 L3.44919786,3.42248663 C1.55831551,3.42248663 0.0267112299,4.9540107 0.0267112299,6.84497326 L0.0267112299,30.802139 C0.0267112299,32.6930214 1.55823529,34.2246257 3.44919786,34.2246257 L27.4064439,34.2246257 C29.2973262,34.2246257 30.8289305,32.6931016 30.8289305,30.802139 L30.8289305,6.84489305 C30.8289305,4.9540107 29.2973262,3.42248663 27.4064439,3.42248663 Z M15.4277807,3.42248663 C16.3689305,3.42248663 17.138984,4.18395722 17.138984,5.13368984 C17.138984,6.08342246 16.3689305,6.84489305 15.4277807,6.84489305 C14.486631,6.84489305 13.7165775,6.08342246 13.7165775,5.13368984 C13.7165775,4.18395722 14.486631,3.42248663 15.4277807,3.42248663 Z M12.0053743,27.3796524 L5.16040107,20.5347594 L7.58181818,18.1133422 L12.0053743,22.5368984 L23.2738235,11.2684492 L25.6952406,13.6898663 L12.0053743,27.3796524 Z" id="Shape"></path>
                    </g>
                </g>
            </g>
        </g>
    </g>
</svg>